Coordinates
version=1
nRows=11
nColumns=36
inDegrees=yes

Units are S.I. units (second, meters, Newtons, ...)
If the header above contains a line with 'inDegrees', this indicates whether rotational values are in degrees (yes) or radians (no).

endheader
time	pelvis_tilt	pelvis_list	pelvis_rotation	pelvis_tx	pelvis_ty	pelvis_tz	hip_flexion_r	hip_adduction_r	hip_rotation_r	knee_angle_r	knee_angle_r_beta	ankle_angle_r	subtalar_angle_r	mtp_angle_r	hip_flexion_l	hip_adduction_l	hip_rotation_l	knee_angle_l	knee_angle_l_beta	ankle_angle_l	subtalar_angle_l	mtp_angle_l	lumbar_extension	lumbar_bending	lumbar_rotation	arm_flex_r	arm_add_r	arm_rot_r	elbow_flex_r	pro_sup_r	arm_flex_l	arm_add_l	arm_rot_l	elbow_flex_l	pro_sup_l
     44.90000000	     -3.04870668	      0.80007061	     -8.34915928	      0.57153684	      0.91898997	      0.79498617	      0.59478758	      0.32102831	     -2.51785963	     13.33251500	      0.23269628	     17.53889086	     -3.02632433	     -7.49999987	     30.50062445	     -3.45846809	     -8.97394798	     26.30183198	      0.45905357	      5.74398829	     -8.37110430	     -7.49999987	     -4.22211253	      0.43449916	      7.41712375	     19.43380374	    -17.75242226	     15.85612132	     28.28386815	     98.77656654	     -0.31677534	    -10.30107451	     19.39545989	     16.21248093	    103.17957647
     44.91666670	     -3.74713585	      0.68998406	     -8.65272245	      0.56999280	      0.91643540	      0.79614903	     -0.23375128	      0.42632554	     -2.75122921	     13.14833089	      0.22948167	     17.22182051	     -1.85039945	     -7.49999987	     31.30124871	     -3.89910717	     -9.05871435	     21.52471719	      0.37567719	      5.37728068	     -7.11493334	     -7.49999987	     -3.40800590	      0.67411649	      8.03554674	     20.41055562	    -17.83877743	     16.46205782	     28.25360376	     99.46924511	     -0.60255813	    -10.04014936	     18.83098335	     16.08860023	    103.72911181
     44.93333330	     -4.39951531	      0.67896308	     -8.95642218	      0.57238662	      0.91306711	      0.79734906	     -1.22470229	      0.41490600	     -2.94861267	     12.75450799	      0.22260816	     16.72987785	     -0.39557560	     -7.49999987	     31.86211433	     -4.16500974	     -8.96547811	     17.07213210	      0.29796492	      5.46261615	     -5.61188576	     -7.49999987	     -2.56581942	      0.76084292	      8.60550750	     21.16765887	    -17.72605184	     16.95518340	     27.96289746	    100.44378747	     -0.95077761	     -9.81830508	     18.03006623	     16.07973759	    104.48831220
     44.95000000	     -4.88020511	      0.79185848	     -9.27871875	      0.57702129	      0.90877194	      0.79758636	     -2.34498755	      0.20481076	     -3.05953457	     12.42360887	      0.21683288	     16.43563044	      1.02584401	     -7.49999987	     32.20282763	     -4.22730560	     -8.72612686	     13.71598867	      0.23938916	      6.02390282	     -4.06887110	     -7.49999987	     -1.75007158	      0.66316006	      9.04113725	     21.88458752	    -17.42208501	     17.56250885	     27.24830858	    100.98541335	     -1.34085821	     -9.61913361	     17.13890562	     15.91348932	    104.56477630
     44.96666670	     -5.23063952	      1.08558780	     -9.60480099	      0.58250188	      0.90473449	      0.79620407	     -3.37755353	     -0.28256782	     -2.75453977	     12.58616704	      0.21967006	     16.32177544	      1.75050552	     -7.49999987	     32.44063057	     -4.01311899	     -8.30874847	     12.05413442	      0.21038433	      6.47476807	     -3.39160634	     -7.49999987	     -0.87242921	      0.31119008	      9.63639926	     21.93784059	    -17.15584540	     17.87814513	     26.84058005	    101.19855578	     -1.68754480	     -9.59645008	     16.92539497	     15.95112862	    104.48139285
     44.98333330	     -5.18799217	      1.51877326	     -9.89451646	      0.58791003	      0.90189669	      0.79319778	     -4.47923571	     -1.15074521	     -2.63901688	     13.51719333	      0.23591953	     16.45088743	      2.62677918	     -7.49999987	     32.29263520	     -3.52088149	     -7.96356341	     12.31332377	      0.21490804	      6.87054046	     -3.24100704	     -7.49999987	     -0.18484532	     -0.22401494	     10.07358377	     22.22552741	    -16.63173220	     18.58477364	     25.41685706	    102.01952314	     -1.79932534	     -9.46092861	     16.49303738	     15.31617518	    104.62465402
     45.00000000	     -5.10582256	      2.09937672	    -10.13334142	      0.59255068	      0.90001664	      0.78908948	     -5.16995218	     -2.22346101	     -1.87487108	     15.22981807	      0.26581047	     15.66914414	      1.63770151	     -7.49999987	     32.08480196	     -2.78756597	     -7.73314384	     13.99955041	      0.24433825	      6.67699388	     -3.67872621	     -7.49999987	      0.51993013	     -0.97375675	     10.44073279	     21.99641285	    -16.11047284	     18.83639774	     24.65772473	    101.14838075	     -1.93782893	     -9.42732264	     16.50851009	     14.71492968	    103.38292876
     45.01666670	     -5.07217572	      2.69436640	    -10.17401755	      0.59733937	      0.89989646	      0.78445627	     -5.26361972	     -3.46620307	     -1.79806399	     17.81867265	      0.31099451	     14.35828755	      1.09203341	     -7.49999987	     31.88932227	     -1.84298834	     -7.10836696	     16.29037683	      0.28432071	      5.64343238	     -4.99064129	     -7.49999987	      1.33084354	     -1.66627730	     10.49472356	     21.44674091	    -15.88447287	     19.55416098	     24.59017509	    103.69851904	     -2.27192648	     -9.60573054	     17.72837151	     14.50624189	    105.70602166
     45.03333330	     -5.29986119	      3.29107963	    -10.28708261	      0.60334629	      0.90111126	      0.78131707	     -4.45192828	     -4.63357924	     -1.14417337	     21.22813319	      0.37050082	     11.53170752	     -0.66416592	     -7.49999987	     31.80564593	     -1.00139273	     -6.73325026	     18.47627220	      0.32247178	      4.60007279	     -5.98405597	     -7.49999987	      2.52495191	     -2.34166157	     10.85565590	     20.23204237	    -15.64745707	     19.33137251	     24.57442824	    104.11764409	     -2.54866939	     -9.59060713	     18.33697778	     13.88679769	    106.12280547
     45.05000000	     -5.40233436	      3.92753445	    -10.35635733	      0.60869023	      0.90172853	      0.77980073	     -2.95364350	     -5.79402871	     -0.26346325	     25.76917698	      0.44975698	      7.01448549	     -3.31472617	     -7.49999987	     31.34715963	     -0.12457624	     -6.63492995	     20.10724195	      0.35093758	      3.87602842	     -6.41476193	     -7.49999987	      3.42732468	     -3.12813043	     10.70403443	     19.04350885	    -15.19695764	     19.24269799	     24.70910564	    104.53029616	     -3.16881354	     -9.71064379	     18.47428753	     13.84797022	    106.47013582
     45.06666670	     -5.61017323	      4.58449328	    -10.34490532	      0.61115860	      0.90155972	      0.77865771	     -0.33165438	     -6.82598302	      0.84116792	     31.68157872	      0.55294786	      0.40829180	     -6.87979320	     -7.49999987	     30.78653064	      0.78562790	     -6.58209027	     21.16904211	      0.36946948	      3.55791655	     -6.65412652	     -7.49999987	      4.39279911	     -3.96348610	     10.41750975	     17.63197191	    -14.72463497	     19.13782759	     24.91272332	    104.94672181	     -3.72675111	     -9.83110668	     18.67644719	     13.74476996	    106.84587194
